<svg width="17" height="17" viewBox="0 0 17 17" fill="none" xmlns="http://www.w3.org/2000/svg">
<path d="M16.4166 11.474V1.97396C16.4166 1.10313 15.7041 0.390625 14.8333 0.390625H5.33325C4.46242 0.390625 3.74992 1.10313 3.74992 1.97396V11.474C3.74992 12.3448 4.46242 13.0573 5.33325 13.0573H14.8333C15.7041 13.0573 16.4166 12.3448 16.4166 11.474ZM8.02492 8.72688L9.31534 10.4527L11.3578 7.90354C11.5162 7.70563 11.817 7.70563 11.9753 7.90354L14.3187 10.8327C14.5245 11.094 14.3424 11.474 14.0099 11.474H6.12492C5.80034 11.474 5.61034 11.1019 5.80825 10.8406L7.39159 8.72688C7.54992 8.52104 7.86659 8.52104 8.02492 8.72688ZM0.583252 4.34896V14.6406C0.583252 15.5115 1.29575 16.224 2.16659 16.224H12.4583C12.8937 16.224 13.2499 15.8677 13.2499 15.4323C13.2499 14.9969 12.8937 14.6406 12.4583 14.6406H2.95825C2.52284 14.6406 2.16659 14.2844 2.16659 13.849V4.34896C2.16659 3.91354 1.81034 3.55729 1.37492 3.55729C0.939502 3.55729 0.583252 3.91354 0.583252 4.34896Z" fill="#616161"/>
</svg>
