<svg width="842" height="842" viewBox="0 0 842 842" fill="none" xmlns="http://www.w3.org/2000/svg">
  <path d="M386.46 686.4L187.8 592.91C185.586 591.868 183.715 590.217 182.404 588.15C181.094 586.084 180.399 583.687 180.4 581.24V193.1C180.399 191.005 180.927 188.944 181.936 187.108C182.945 185.272 184.402 183.72 186.17 182.598C187.939 181.475 189.963 180.818 192.054 180.688C194.145 180.557 196.235 180.957 198.13 181.85L396.79 275.34C399.004 276.38 400.877 278.029 402.189 280.093C403.501 282.158 404.199 284.554 404.2 287V675.15C404.199 677.245 403.669 679.306 402.659 681.142C401.649 682.978 400.192 684.529 398.422 685.651C396.653 686.773 394.629 687.43 392.537 687.561C390.446 687.692 388.356 687.293 386.46 686.4Z" fill="#3E3A39" />
  <path d="M643.76 619.31L445.1 525.82C442.885 524.778 441.012 523.128 439.7 521.061C438.388 518.995 437.691 516.598 437.69 514.15V321.15C437.685 306.236 440.661 291.471 446.443 277.724C452.225 263.976 460.697 251.523 471.36 241.096C482.024 230.669 494.664 222.479 508.538 217.006C522.412 211.534 537.24 208.89 552.15 209.23C581.377 209.899 609.181 221.979 629.615 242.886C650.049 263.792 661.49 291.866 661.49 321.1V608.1C661.484 610.192 660.951 612.248 659.939 614.079C658.928 615.909 657.471 617.455 655.703 618.573C653.935 619.691 651.914 620.344 649.826 620.473C647.738 620.602 645.652 620.202 643.76 619.31Z" fill="#3E3A39" />
</svg>