<svg width="198" height="40" viewBox="0 0 198 40" fill="none" xmlns="http://www.w3.org/2000/svg">
    <path
        d="M20.4987 38.9206L7.20232 32.6633C7.05414 32.5936 6.92887 32.4831 6.84117 32.3448C6.75346 32.2065 6.70694 32.046 6.70703 31.8823V5.90398C6.70696 5.76376 6.74232 5.6258 6.80985 5.50291C6.87737 5.38002 6.97485 5.2762 7.09325 5.20107C7.21164 5.12595 7.3471 5.08197 7.48705 5.07322C7.62699 5.06446 7.76687 5.09123 7.8937 5.15101L21.1901 11.4083C21.3383 11.4779 21.4636 11.5883 21.5514 11.7265C21.6392 11.8647 21.6859 12.025 21.686 12.1887V38.1677C21.686 38.3079 21.6505 38.4459 21.5829 38.5687C21.5153 38.6916 21.4177 38.7954 21.2993 38.8705C21.1809 38.9456 21.0454 38.9896 20.9054 38.9984C20.7655 39.0071 20.6255 38.9804 20.4987 38.9206Z"
        fill="#81EDB9" />
    <path
        d="M37.7181 34.4303L24.4217 28.173C24.2735 28.1033 24.1481 27.9928 24.0603 27.8545C23.9725 27.7162 23.9258 27.5558 23.9258 27.3919V14.4744C23.9254 13.4762 24.1246 12.488 24.5116 11.5679C24.8986 10.6477 25.4656 9.81423 26.1794 9.11636C26.8931 8.41848 27.7391 7.87031 28.6677 7.50405C29.5962 7.13779 30.5887 6.96083 31.5866 6.98357C33.5428 7.02834 35.4037 7.83685 36.7714 9.23615C38.139 10.6354 38.9047 12.5144 38.9048 14.4711V33.68C38.9044 33.82 38.8687 33.9576 38.801 34.0802C38.7333 34.2027 38.6357 34.3062 38.5174 34.381C38.3991 34.4558 38.2638 34.4995 38.1241 34.5082C37.9844 34.5168 37.8447 34.49 37.7181 34.4303Z"
        fill="#81EDB9" />
    <path
        d="M60.9193 29.7686C59.5857 29.7686 58.3522 29.5352 57.2187 29.0684C56.1018 28.6017 55.1184 27.9516 54.2682 27.1181C53.4181 26.2847 52.7596 25.3178 52.2929 24.2177C51.8262 23.1008 51.5928 21.9006 51.5928 20.6171C51.5928 19.3169 51.8262 18.1167 52.2929 17.0165C52.7596 15.9163 53.4098 14.9578 54.2432 14.141C55.0767 13.3076 56.0518 12.6658 57.1687 12.2157C58.3022 11.749 59.5357 11.5156 60.8693 11.5156C62.1862 11.5156 63.403 11.749 64.5199 12.2157C65.6534 12.6658 66.6369 13.3076 67.4703 14.141C68.3205 14.9578 68.9789 15.9247 69.4457 17.0415C69.9124 18.1417 70.1458 19.3419 70.1458 20.6421C70.1458 21.9256 69.9124 23.1258 69.4457 24.2427C68.9789 25.3428 68.3288 26.3097 67.4953 27.1431C66.6619 27.9599 65.6784 28.6017 64.5449 29.0684C63.428 29.5352 62.2195 29.7686 60.9193 29.7686ZM60.8693 26.193C61.9195 26.193 62.8363 25.9596 63.6197 25.4929C64.4199 25.0261 65.0366 24.376 65.47 23.5426C65.9034 22.6924 66.1201 21.7173 66.1201 20.6171C66.1201 19.7836 65.9951 19.0335 65.7451 18.3667C65.495 17.6833 65.1366 17.0999 64.6699 16.6164C64.2032 16.1164 63.6447 15.7413 62.9946 15.4913C62.3612 15.2246 61.6527 15.0912 60.8693 15.0912C59.8191 15.0912 58.894 15.3246 58.0938 15.7913C57.3104 16.2414 56.7019 16.8832 56.2685 17.7166C55.8351 18.5334 55.6184 19.5002 55.6184 20.6171C55.6184 21.4506 55.7435 22.209 55.9935 22.8924C56.2435 23.5759 56.5936 24.1677 57.0437 24.6677C57.5104 25.1511 58.0688 25.5262 58.7189 25.7929C59.369 26.0596 60.0858 26.193 60.8693 26.193ZM79.2888 29.7185C78.472 29.7185 77.7219 29.5602 77.0385 29.2435C76.355 28.9268 75.7966 28.4933 75.3632 27.9433C74.9298 27.3765 74.6798 26.7347 74.6131 26.018V20.8921C74.6798 20.1753 74.9298 19.5252 75.3632 18.9418C75.7966 18.3584 76.355 17.9 77.0385 17.5666C77.7219 17.2332 78.472 17.0665 79.2888 17.0665C80.439 17.0665 81.4559 17.3416 82.3393 17.8916C83.2395 18.4417 83.9396 19.1919 84.4397 20.142C84.9564 21.0922 85.2148 22.1757 85.2148 23.3925C85.2148 24.6094 84.9564 25.6929 84.4397 26.6431C83.9396 27.5932 83.2395 28.3433 82.3393 28.8934C81.4559 29.4435 80.439 29.7185 79.2888 29.7185ZM78.5887 26.268C79.1388 26.268 79.6139 26.143 80.014 25.8929C80.4307 25.6429 80.7557 25.3012 80.9891 24.8678C81.2225 24.4344 81.3392 23.9426 81.3392 23.3925C81.3392 22.8258 81.2225 22.3257 80.9891 21.8923C80.7557 21.4589 80.4307 21.1255 80.014 20.8921C79.6139 20.6421 79.1472 20.5171 78.6137 20.5171C78.0803 20.5171 77.6052 20.6421 77.1885 20.8921C76.7884 21.1255 76.4717 21.4589 76.2384 21.8923C76.005 22.3257 75.8883 22.8258 75.8883 23.3925C75.8883 23.9426 75.9966 24.4344 76.2133 24.8678C76.4467 25.3012 76.7718 25.6429 77.1885 25.8929C77.6052 26.143 78.072 26.268 78.5887 26.268ZM72.2877 34.5943V17.3166H76.1133V20.4421L75.4882 23.3925L76.0633 26.343V34.5943H72.2877ZM93.1592 29.7436C91.8424 29.7436 90.6672 29.4768 89.6337 28.9434C88.6168 28.3933 87.8167 27.6349 87.2333 26.6681C86.6499 25.7012 86.3581 24.6094 86.3581 23.3925C86.3581 22.1757 86.6415 21.0922 87.2083 20.142C87.7917 19.1752 88.5752 18.4167 89.5587 17.8666C90.5421 17.3166 91.6507 17.0415 92.8842 17.0415C94.0844 17.0415 95.1429 17.2999 96.0597 17.8166C96.9765 18.3334 97.6933 19.0502 98.21 19.967C98.7435 20.8838 99.0102 21.934 99.0102 23.1175C99.0102 23.3342 98.9935 23.5676 98.9602 23.8176C98.9435 24.051 98.9018 24.326 98.8351 24.6427L88.3585 24.6677V22.0423L97.2099 22.0173L95.5596 23.1175C95.5429 22.4174 95.4346 21.8423 95.2346 21.3922C95.0345 20.9255 94.7345 20.5754 94.3344 20.342C93.951 20.092 93.476 19.967 92.9092 19.967C92.3091 19.967 91.784 20.1087 91.3339 20.392C90.9005 20.6588 90.5588 21.0422 90.3088 21.5422C90.0754 22.0423 89.9587 22.6507 89.9587 23.3675C89.9587 24.0843 90.0837 24.7011 90.3338 25.2178C90.6005 25.7179 90.9672 26.1096 91.434 26.393C91.9174 26.6597 92.4841 26.7931 93.1342 26.7931C93.7343 26.7931 94.2761 26.6931 94.7595 26.493C95.2429 26.2763 95.668 25.9596 96.0347 25.5429L98.135 27.6432C97.5349 28.3433 96.8098 28.8684 95.9597 29.2185C95.1095 29.5685 94.1761 29.7436 93.1592 29.7436ZM108.883 29.4685V22.5424C108.883 21.909 108.683 21.4005 108.283 21.0171C107.9 20.6171 107.408 20.4171 106.808 20.4171C106.391 20.4171 106.024 20.5087 105.708 20.6921C105.391 20.8588 105.141 21.1088 104.957 21.4422C104.774 21.7589 104.682 22.1257 104.682 22.5424L103.207 21.8173C103.207 20.8671 103.415 20.0337 103.832 19.3169C104.249 18.6001 104.824 18.05 105.558 17.6666C106.308 17.2665 107.149 17.0665 108.083 17.0665C108.983 17.0665 109.775 17.2832 110.458 17.7166C111.158 18.1334 111.708 18.6918 112.109 19.3919C112.509 20.092 112.709 20.8588 112.709 21.6923V29.4685H108.883ZM100.857 29.4685V17.3166H104.682V29.4685H100.857ZM120.277 29.4685V11.8157H123.028L124.203 15.3412V29.4685H120.277ZM132.454 29.4685L122.053 16.1414L123.028 11.8157L133.429 25.1428L132.454 29.4685ZM132.454 29.4685L131.404 25.9429V11.8157H135.33V29.4685H132.454ZM147.114 29.7436C145.797 29.7436 144.572 29.5185 143.438 29.0684C142.321 28.6017 141.338 27.9516 140.488 27.1181C139.654 26.2847 139.004 25.3178 138.537 24.2177C138.07 23.1008 137.837 21.9006 137.837 20.6171C137.837 19.3335 138.07 18.1417 138.537 17.0415C139.004 15.9247 139.654 14.9578 140.488 14.141C141.321 13.3242 142.296 12.6908 143.413 12.2407C144.547 11.774 145.772 11.5406 147.089 11.5406C148.489 11.5406 149.731 11.7657 150.814 12.2157C151.914 12.6658 152.873 13.2826 153.69 14.066L151.064 16.7165C150.597 16.2164 150.031 15.8246 149.364 15.5413C148.714 15.2579 147.955 15.1162 147.089 15.1162C146.322 15.1162 145.613 15.2496 144.963 15.5163C144.33 15.7663 143.78 16.133 143.313 16.6164C142.863 17.0999 142.505 17.6833 142.238 18.3667C141.988 19.0502 141.863 19.8003 141.863 20.6171C141.863 21.4506 141.988 22.209 142.238 22.8924C142.505 23.5759 142.863 24.1593 143.313 24.6427C143.78 25.1261 144.33 25.5012 144.963 25.7679C145.613 26.0346 146.322 26.168 147.089 26.168C147.989 26.168 148.772 26.0263 149.439 25.7429C150.106 25.4595 150.681 25.0678 151.164 24.5677L153.815 27.2181C152.965 28.0016 151.989 28.6184 150.889 29.0684C149.806 29.5185 148.547 29.7436 147.114 29.7436ZM163.645 29.7436C162.328 29.7436 161.102 29.5185 159.969 29.0684C158.852 28.6017 157.869 27.9516 157.019 27.1181C156.185 26.2847 155.535 25.3178 155.068 24.2177C154.601 23.1008 154.368 21.9006 154.368 20.6171C154.368 19.3335 154.601 18.1417 155.068 17.0415C155.535 15.9247 156.185 14.9578 157.019 14.141C157.852 13.3242 158.827 12.6908 159.944 12.2407C161.077 11.774 162.303 11.5406 163.62 11.5406C165.02 11.5406 166.262 11.7657 167.345 12.2157C168.445 12.6658 169.404 13.2826 170.221 14.066L167.595 16.7165C167.128 16.2164 166.562 15.8246 165.895 15.5413C165.245 15.2579 164.486 15.1162 163.62 15.1162C162.853 15.1162 162.144 15.2496 161.494 15.5163C160.861 15.7663 160.311 16.133 159.844 16.6164C159.394 17.0999 159.035 17.6833 158.769 18.3667C158.519 19.0502 158.394 19.8003 158.394 20.6171C158.394 21.4506 158.519 22.209 158.769 22.8924C159.035 23.5759 159.394 24.1593 159.844 24.6427C160.311 25.1261 160.861 25.5012 161.494 25.7679C162.144 26.0346 162.853 26.168 163.62 26.168C164.52 26.168 165.303 26.0263 165.97 25.7429C166.637 25.4595 167.212 25.0678 167.695 24.5677L170.346 27.2181C169.496 28.0016 168.52 28.6184 167.42 29.0684C166.337 29.5185 165.078 29.7436 163.645 29.7436ZM179.608 29.7436C178.158 29.7436 176.875 29.4352 175.758 28.8184C174.658 28.2016 173.791 27.3515 173.157 26.268C172.541 25.1678 172.232 23.9176 172.232 22.5174V11.8157H176.183V22.7424C176.183 23.4425 176.333 24.051 176.633 24.5677C176.933 25.0845 177.341 25.4845 177.858 25.7679C178.392 26.0346 178.975 26.168 179.608 26.168C180.275 26.168 180.859 26.0346 181.359 25.7679C181.859 25.4845 182.251 25.0928 182.534 24.5927C182.834 24.076 182.984 23.4675 182.984 22.7674V11.8157H186.935V22.5424C186.935 23.9426 186.626 25.1845 186.009 26.268C185.393 27.3515 184.534 28.2016 183.434 28.8184C182.334 29.4352 181.059 29.7436 179.608 29.7436Z"
        fill="#81EDB9" />
</svg>