<svg width="34" height="34" viewBox="0 0 34 34" fill="none" xmlns="http://www.w3.org/2000/svg">
<path d="M12.8333 23.25H4.49996C3.34937 23.25 2.41663 24.1827 2.41663 25.3333V29.5C2.41663 30.6506 3.34937 31.5833 4.49996 31.5833H12.8333C13.9839 31.5833 14.9166 30.6506 14.9166 29.5V25.3333C14.9166 24.1827 13.9839 23.25 12.8333 23.25Z" fill="black"/>
<path d="M12.8333 2.41675H4.49996C3.34937 2.41675 2.41663 3.34949 2.41663 4.50008V17.0001C2.41663 18.1507 3.34937 19.0834 4.49996 19.0834H12.8333C13.9839 19.0834 14.9166 18.1507 14.9166 17.0001V4.50008C14.9166 3.34949 13.9839 2.41675 12.8333 2.41675Z" fill="black"/>
<path d="M29.5 14.9167H21.1667C20.0161 14.9167 19.0834 15.8495 19.0834 17.0001V29.5001C19.0834 30.6507 20.0161 31.5834 21.1667 31.5834H29.5C30.6506 31.5834 31.5834 30.6507 31.5834 29.5001V17.0001C31.5834 15.8495 30.6506 14.9167 29.5 14.9167Z" fill="black"/>
<path d="M29.5 2.41675H21.1667C20.0161 2.41675 19.0834 3.34949 19.0834 4.50008V8.66675C19.0834 9.81734 20.0161 10.7501 21.1667 10.7501H29.5C30.6506 10.7501 31.5834 9.81734 31.5834 8.66675V4.50008C31.5834 3.34949 30.6506 2.41675 29.5 2.41675Z" fill="black"/>
</svg>
