<svg width="210" height="37" viewBox="0 0 210 37" fill="none" xmlns="http://www.w3.org/2000/svg">
  <path d="M27 20.0098H188" stroke="white" stroke-width="4" />
  <path fill-rule="evenodd" clip-rule="evenodd"
    d="M199.154 23.069C197.529 23.7168 195.814 24.3736 194.944 24.6014C192.767 25.1795 191.747 27.744 192.532 28.0733C192.842 28.2038 194.063 27.9285 195.499 27.517C198.809 26.5681 203.955 24.8648 206.497 22.5374C207.075 22.0083 207.49 21.447 207.602 20.8761C207.687 20.439 207.53 20.0596 207.043 19.7588C203.606 17.2728 200.666 14.7713 198.396 12.2488C198.197 12.0567 197.993 11.9665 197.786 11.9625C197.095 11.9489 196.168 13.1522 195.835 13.6785C195.355 14.4362 195.324 14.949 195.865 15.5839C196.932 16.834 198.252 17.8964 199.584 18.941C199.903 17.8048 179.252 17.7895 162.5 18.0105L155.01 18.0098L148 18.0101C148.24 18.337 148 22.0113 148 22.0113C148 22.0113 148 22.0105 150 22.0101C150 22.0101 150 22.0098 152.5 22.0105C152.5 22.0105 156 22.0098 157 22.0113C157 22.0113 168 22.0105 178 22.0105C190 22.0105 189.5 22.0105 199.154 23.069Z"
    fill="white" />
  <path fill-rule="evenodd" clip-rule="evenodd"
    d="M10.0212 23.069C11.6458 23.7168 13.3611 24.3736 14.2312 24.6014C16.4082 25.1795 17.4279 27.744 16.6431 28.0733C16.3324 28.2038 15.1116 27.9285 13.6757 27.517C10.3654 26.5681 5.21959 24.8648 2.67762 22.5374C2.09971 22.0083 1.6849 21.447 1.57318 20.8761C1.48751 20.439 1.64499 20.0596 2.13192 19.7588C5.56904 17.2728 8.50883 14.7713 10.7788 12.2488C10.9782 12.0567 11.1818 11.9665 11.3887 11.9625C12.0796 11.9489 13.0066 13.1522 13.3399 13.6785C13.8196 14.4362 13.8513 14.949 13.3095 15.5839C12.2427 16.834 10.9226 17.8964 9.59112 18.941C9.2716 17.8048 29.9231 17.7895 46.675 18.0105L54.1645 18.0098L61.1753 18.0101C60.9346 18.337 61.1747 22.0113 61.1747 22.0113C61.1747 22.0113 61.1743 22.0105 59.1752 22.0101C59.1752 22.0101 59.1748 22.0098 56.6747 22.0105C56.6747 22.0105 53.1748 22.0098 52.1747 22.0113C52.1747 22.0113 41.1747 22.0105 31.175 22.0105C19.1747 22.0105 19.6747 22.0105 10.0212 23.069Z"
    fill="white" />
</svg>