<svg width="26" height="28" viewBox="0 0 26 28" fill="none" xmlns="http://www.w3.org/2000/svg">
  <path
    d="M10.9963 27.2876L0.509759 22.3526C0.392893 22.2976 0.2941 22.2104 0.224929 22.1013C0.155758 21.9923 0.119065 21.8657 0.119141 21.7366V1.24815C0.119082 1.13757 0.146975 1.02876 0.200228 0.931845C0.253481 0.834926 0.330365 0.753039 0.42374 0.693791C0.517114 0.634544 0.623949 0.599857 0.734318 0.592954C0.844688 0.586052 0.955011 0.607158 1.05504 0.65431L11.5415 5.58929C11.6584 5.64419 11.7573 5.73122 11.8265 5.8402C11.8958 5.94919 11.9326 6.07564 11.9327 6.20477V26.6937C11.9326 26.8043 11.9047 26.9131 11.8514 27.01C11.798 27.1069 11.7211 27.1888 11.6277 27.248C11.5343 27.3073 11.4274 27.342 11.3171 27.3489C11.2067 27.3558 11.0963 27.3347 10.9963 27.2876V27.2876Z"
    fill="#81EDB9" />
  <path
    d="M24.5778 23.7462L14.0913 18.8113C13.9744 18.7563 13.8755 18.6691 13.8063 18.5601C13.737 18.451 13.7002 18.3244 13.7002 18.1952V8.00751C13.6999 7.22025 13.857 6.44087 14.1622 5.71519C14.4674 4.9895 14.9146 4.33215 15.4775 3.78175C16.0404 3.23136 16.7076 2.79902 17.44 2.51016C18.1723 2.2213 18.955 2.08174 19.7421 2.09968C21.2849 2.13498 22.7525 2.77264 23.8312 3.87623C24.9098 4.97982 25.5137 6.4617 25.5137 8.00487V23.1545C25.5134 23.2649 25.4853 23.3734 25.4319 23.4701C25.3785 23.5667 25.3016 23.6483 25.2082 23.7073C25.1149 23.7663 25.0082 23.8008 24.898 23.8076C24.7878 23.8144 24.6777 23.7933 24.5778 23.7462Z"
    fill="#81EDB9" />
</svg>