<svg width="346" height="265" viewBox="0 0 346 265" fill="none" xmlns="http://www.w3.org/2000/svg">
<g clip-path="url(#clip0_813_1548)">
<rect x="-9.18604" y="-229.279" width="377.208" height="216.978" rx="108.489" transform="rotate(47.205 -9.18604 -229.279)" fill="#4C6AA1" fill-opacity="0.8"/>
<rect x="195.167" y="217.845" width="150.516" height="36.7111" fill="#D9D9D9"/>
<path d="M-18.626 167.367H107.621C135.235 167.367 157.621 189.753 157.621 217.367V254.556H-18.626V167.367Z" fill="#D9D9D9"/>
<path d="M241.395 231.6V234.08H259.195V231.6H241.395ZM251.655 232.6L249.235 233.16C250.755 238.66 253.255 242.8 257.835 244.94C258.235 244.24 259.035 243.2 259.635 242.66C255.395 240.98 252.855 237.18 251.655 232.6ZM248.895 226.22C248.835 231.64 249.195 239.24 240.995 242.9C241.695 243.42 242.435 244.28 242.815 244.94C251.395 240.8 251.435 232.32 251.535 226.22H248.895ZM262.384 238.88V240.84H277.144V238.88H262.384ZM276.084 238.88L276.064 239.16C275.844 241.46 275.524 242.54 275.144 242.82C274.944 243 274.724 243.02 274.344 243.02C273.884 243.02 272.764 243 271.704 242.9C272.064 243.46 272.344 244.32 272.384 244.96C273.564 245 274.704 245 275.344 244.94C276.084 244.9 276.664 244.76 277.144 244.28C277.744 243.74 278.124 242.46 278.444 239.8C278.504 239.5 278.544 238.88 278.544 238.88H276.084ZM269.104 237.5C268.704 240.62 267.864 242.28 261.424 243.06C261.844 243.56 262.364 244.48 262.524 245.06C269.704 243.98 271.024 241.58 271.524 237.5H269.104ZM262.844 226.88V228.64H275.884V226.88H262.844ZM275.204 226.88V227.36C274.184 228.14 271.884 229.32 270.004 229.92C270.324 230.24 270.904 230.9 271.184 231.3C273.544 230.52 276.004 229.32 277.944 228.18L276.384 226.76L275.844 226.88H275.204ZM265.644 230.08C267.904 230.7 270.944 231.8 272.404 232.56L274.264 231.18C272.584 230.4 269.524 229.4 267.364 228.86L265.644 230.08ZM265.624 235.24H275.404V236.22H265.624V235.24ZM265.624 232.72H275.404V233.68H265.624V232.72ZM263.324 231.08V237.86H277.824V231.08H263.324ZM269.204 231.6V237.02H271.504V231.6H269.204ZM287.894 238.32V240.14H300.054V238.32H287.894ZM292.754 226.22V237.1H294.974V226.22H292.754ZM291.234 228.96H296.614V231.78H291.234V228.96ZM289.194 227.52V233.22H298.734V227.52H289.194ZM290.814 235.34H296.934V236.12H290.814V235.34ZM288.694 233.88V237.56H299.154V233.88H288.694ZM291.854 236.94C291.034 238.52 289.814 240.56 288.914 241.84L290.954 242.42C291.814 241.1 293.014 239.1 293.914 237.4L291.854 236.94ZM295.714 239.32C295.194 241.72 293.894 242.82 287.634 243.3C287.994 243.76 288.434 244.56 288.574 245.08C295.454 244.34 297.234 242.66 297.894 239.32H295.714ZM290.294 242.04C293.074 242.76 296.754 244.1 298.574 245.06L299.934 243.42C297.954 242.44 294.234 241.22 291.554 240.6L290.294 242.04ZM287.974 229.46V231.24H290.394V231.04H297.574V231.24H300.034V229.46H297.574V229.66H290.394V229.46H287.974ZM281.454 230.36V232.58H287.874V230.36H281.454ZM283.774 226.22V245H285.934V226.22H283.774ZM283.754 231.88C283.314 234.42 282.214 237.56 280.974 239.3C281.314 239.88 281.834 240.8 282.054 241.44C283.434 239.4 284.534 235.5 285.074 232.34L283.754 231.88ZM285.814 233.44L284.894 234.36C285.394 235.3 286.574 237.64 286.994 238.8L288.174 237.12C287.834 236.56 286.234 233.98 285.814 233.44Z" fill="#787878"/>
<path d="M42.5736 214.6H45.0336V215.96H42.5736V214.6ZM37.9736 214.6H40.3936V215.96H37.9736V214.6ZM33.4336 214.6H35.7936V215.96H33.4336V214.6ZM31.1336 212.88V217.68H47.4536V212.88H31.1336ZM33.3936 224.58V231H35.5736V224.58H33.3936ZM43.1936 221.16V229.32H45.2736V221.16H43.1936ZM35.8336 222.38C36.4136 223.56 37.0136 225.08 37.1736 226.06L38.9536 225.36C38.7536 224.4 38.1336 222.92 37.4936 221.8L35.8336 222.38ZM30.2536 220.44C31.3736 221.22 32.7736 222.38 33.3936 223.18L34.6936 221.56C34.0336 220.78 32.5736 219.7 31.4736 219L30.2536 220.44ZM35.6736 226.54C36.2136 227.6 36.7736 229.02 36.9536 229.88L38.8136 229.16C38.5936 228.3 37.9736 226.94 37.4136 225.94L35.6736 226.54ZM33.5736 217.18C33.0936 218.14 32.1736 219.48 31.4736 220.32L33.0336 221.08C33.7736 220.3 34.6736 219.14 35.4936 218.02L33.5736 217.18ZM36.2336 218.76C35.0936 220.44 33.1136 222.62 31.5736 223.96L33.0536 224.84C34.6136 223.52 36.5736 221.5 38.0936 219.68L36.2336 218.76ZM30.0736 223.6L30.2336 225.58C32.2736 225.52 34.9736 225.4 37.5936 225.26L37.6136 223.46C34.8536 223.52 32.0136 223.58 30.0736 223.6ZM31.2136 226C30.9336 227.3 30.4136 228.66 29.7736 229.58C30.2536 229.78 31.1536 230.24 31.5536 230.54C32.2136 229.52 32.8536 227.94 33.2136 226.46L31.2136 226ZM40.3736 217.58C39.7536 219.3 38.6336 221 37.3336 222.1C37.8336 222.4 38.6936 223.06 39.0936 223.44C40.4136 222.16 41.7136 220.14 42.4936 218.12L40.3736 217.58ZM44.1136 217.8C43.8336 218.74 43.2936 220.08 42.8336 220.98L44.5536 221.48C45.0936 220.68 45.7536 219.46 46.3536 218.3L44.1136 217.8ZM41.4736 219.86H40.3936L39.3136 220.98V231H41.4736V221.78H48.2336V219.86H41.4736ZM40.4336 222.84V224.54H47.6936V222.84H40.4336ZM40.4336 225.64V227.34H47.6936V225.64H40.4336ZM40.3136 228.44V230.34H48.5336V228.44H40.3136ZM53.7829 219.42V221.3H66.2029V219.42H53.7829ZM53.7829 216.32V218.2H66.2029V216.32H53.7829ZM52.5029 222.56V224.62H66.4229V222.56H52.5029ZM65.9629 222.56V222.92C65.7629 226.76 65.5229 228.24 65.1629 228.64C65.0029 228.82 64.8229 228.86 64.5029 228.86C64.1429 228.88 63.4029 228.86 62.6229 228.76C62.9629 229.38 63.2429 230.32 63.2629 230.98C64.2429 231.02 65.1829 231 65.7229 230.92C66.3429 230.84 66.8029 230.68 67.2429 230.14C67.8229 229.48 68.0829 227.7 68.3229 223.5C68.3629 223.18 68.3829 222.56 68.3829 222.56H65.9629ZM58.3029 225.98C58.8229 227.18 59.2829 228.74 59.4029 229.72L61.3829 229.2C61.2229 228.22 60.7229 226.7 60.1629 225.54L58.3029 225.98ZM61.5229 225.66C62.0829 226.54 62.6829 227.76 62.9029 228.54L64.7629 227.86C64.5029 227.08 63.8629 225.92 63.2629 225.06L61.5229 225.66ZM54.8629 226.06C55.2229 227.38 55.5229 229.1 55.5229 230.22L57.6629 229.86C57.6029 228.72 57.3029 227.04 56.8829 225.72L54.8629 226.06ZM52.0029 225.14C51.7029 226.9 51.0429 228.58 49.8629 229.64L51.8229 230.88C53.1629 229.64 53.7429 227.68 54.1229 225.72L52.0029 225.14ZM58.4829 214.12V223.38H60.8629V214.12H58.4829ZM52.5029 213V223.56H54.8629V215.06H66.9229V213H52.5029ZM74.1722 220.84V222.38H88.5322V220.84H74.1722ZM74.1722 216.7V218.12H88.3322V216.7H74.1722ZM80.0722 221.42V227.34H82.3122V221.42H80.0722ZM77.1922 215.56V220.28H85.3722V215.56H83.0122V218.98H79.4522V215.56H77.1922ZM77.2922 226.12H85.1722V226.94H77.2922V226.12ZM77.2922 224.22H85.1722V225H77.2922V224.22ZM75.1122 223.06V228.1H87.4722V223.06H75.1122ZM82.0522 229.34C83.8322 229.88 85.6922 230.56 86.7522 231.04L88.9722 229.72C87.6922 229.24 85.5122 228.54 83.6722 228.04L82.0522 229.34ZM78.6522 227.96C77.5322 228.54 75.3522 229.22 73.6322 229.54C74.0922 229.94 74.7522 230.62 75.0722 231.04C76.7722 230.7 78.9922 230 80.4322 229.28L78.6522 227.96ZM73.2522 213.66V215.68H88.5122V213.66H73.2522ZM71.8322 213.66V219.74C71.8322 222.72 71.7122 226.86 70.0122 229.7C70.5922 229.92 71.6122 230.52 72.0322 230.88C73.8522 227.82 74.1322 223.02 74.1322 219.74V213.66H71.8322ZM78.9122 212.22V215.1H81.3322V212.22H78.9122ZM96.4615 220.28V222.3H109.122V220.28H96.4615ZM98.6415 223.26V225.14H106.862V223.26H98.6415ZM99.4015 221.02C98.5815 222.96 96.9815 224.62 95.1415 225.66C95.6015 225.98 96.4015 226.7 96.7415 227.1C98.6415 225.86 100.442 223.86 101.462 221.54L99.4015 221.02ZM106.482 223.26V223.58C106.262 227.14 105.962 228.52 105.642 228.88C105.482 229.08 105.322 229.12 105.042 229.12C104.782 229.12 104.242 229.1 103.622 229.04C103.922 229.54 104.122 230.36 104.142 230.94C104.962 230.96 105.722 230.94 106.182 230.88C106.702 230.82 107.142 230.66 107.522 230.22C108.062 229.62 108.382 228 108.662 224.08C108.702 223.8 108.722 223.26 108.722 223.26H106.482ZM100.342 216.9H105.522V217.86H100.342V216.9ZM100.342 214.38H105.522V215.34H100.342V214.38ZM98.2215 212.72V219.52H107.742V212.72H98.2215ZM90.6015 216.42V218.7H96.7215V216.42H90.6015ZM92.6215 212.46V224.9H94.8615V212.46H92.6215ZM90.1615 225.32L91.0415 227.74C92.8015 226.9 94.9615 225.82 96.9615 224.78L96.4615 222.72C94.1415 223.72 91.7015 224.74 90.1615 225.32ZM104.202 223.64C103.462 225.96 101.822 228.54 99.8815 229.74C100.482 230.08 101.182 230.62 101.602 231.08C103.382 229.7 105.062 226.92 105.822 224.52L104.202 223.64ZM101.162 223.66C100.202 225.62 98.1415 227.78 96.1615 228.78C96.7215 229.12 97.3615 229.7 97.7415 230.2C99.6415 228.98 101.742 226.66 102.742 224.6L101.162 223.66Z" fill="#787878"/>
<path d="M82.8106 65.1769L83.3506 67.4969C85.0506 66.9369 87.1506 66.1969 89.0906 65.4969L88.7306 63.3769C86.5706 64.0769 84.3106 64.7969 82.8106 65.1769ZM83.0706 58.7569V60.9569H88.9306V58.7569H83.0706ZM85.0306 54.9569V71.0969C85.0306 71.3169 84.9706 71.3969 84.7506 71.3969C84.5706 71.3969 84.0106 71.3969 83.4506 71.3769C83.7306 71.9969 83.9906 72.9369 84.0506 73.5169C85.1906 73.5169 85.9506 73.4369 86.5306 73.0769C87.1106 72.7169 87.2706 72.1369 87.2706 71.0969V54.9569H85.0306ZM93.4506 57.3769H97.0706V58.6769H93.4506V57.3769ZM91.3906 55.6969V60.3569H99.2506V55.6969H91.3906ZM91.3706 62.6769H93.0306V64.1569H91.3706V62.6769ZM89.5906 61.0569V65.8169H94.8906V61.0569H89.5906ZM97.5306 62.6769H99.2506V64.1569H97.5306V62.6769ZM95.6906 61.0569V65.8169H101.171V61.0569H95.6906ZM89.3306 67.0169V68.9569H101.491V67.0169H89.3306ZM94.1706 65.7169V73.7769H96.4506V65.7169H94.1706ZM93.9306 67.9769C92.7106 69.5769 90.3106 70.9369 87.8306 71.5969C88.3106 72.0369 88.9906 72.8969 89.3106 73.4569C91.9106 72.5769 94.3706 70.7969 95.7906 68.6769L93.9306 67.9769ZM96.8306 68.2369L95.1506 68.8569C96.3306 70.6969 98.3506 72.4369 100.391 73.2769C100.731 72.7169 101.411 71.8769 101.891 71.4569C99.9106 70.8569 97.8706 69.5969 96.8306 68.2369ZM109.22 63.0169V65.0369H121.88V63.0169H109.22ZM111.4 65.9969V67.8769H119.62V65.9969H111.4ZM112.16 63.7569C111.34 65.6969 109.74 67.3569 107.9 68.3969C108.36 68.7169 109.16 69.4369 109.5 69.8369C111.4 68.5969 113.2 66.5969 114.22 64.2769L112.16 63.7569ZM119.24 65.9969V66.3169C119.02 69.8769 118.72 71.2569 118.4 71.6169C118.24 71.8169 118.08 71.8569 117.8 71.8569C117.54 71.8569 117 71.8369 116.38 71.7769C116.68 72.2769 116.88 73.0969 116.9 73.6769C117.72 73.6969 118.48 73.6769 118.94 73.6169C119.46 73.5569 119.9 73.3969 120.28 72.9569C120.82 72.3569 121.14 70.7369 121.42 66.8169C121.46 66.5369 121.48 65.9969 121.48 65.9969H119.24ZM113.1 59.6369H118.28V60.5969H113.1V59.6369ZM113.1 57.1169H118.28V58.0769H113.1V57.1169ZM110.98 55.4569V62.2569H120.5V55.4569H110.98ZM103.36 59.1569V61.4369H109.48V59.1569H103.36ZM105.38 55.1969V67.6369H107.62V55.1969H105.38ZM102.92 68.0569L103.8 70.4769C105.56 69.6369 107.72 68.5569 109.72 67.5169L109.22 65.4569C106.9 66.4569 104.46 67.4769 102.92 68.0569ZM116.96 66.3769C116.22 68.6969 114.58 71.2769 112.64 72.4769C113.24 72.8169 113.94 73.3569 114.36 73.8169C116.14 72.4369 117.82 69.6569 118.58 67.2569L116.96 66.3769ZM113.92 66.3969C112.96 68.3569 110.9 70.5169 108.92 71.5169C109.48 71.8569 110.12 72.4369 110.5 72.9369C112.4 71.7169 114.5 69.3969 115.5 67.3369L113.92 66.3969Z" fill="white"/>
<path d="M224.321 144.057H345.682V200.298H224.321V144.057Z" fill="#FFBCBC"/>
<path d="M345.682 78.9369V200.298L289.442 200.298L289.442 78.9369L345.682 78.9369Z" fill="#FFBCBC"/>
<path d="M336.816 56.7137L215.456 56.7137L215.456 0.473336L336.816 0.473347L336.816 56.7137Z" fill="#FFBCBC"/>
<path d="M215.456 121.834L215.456 0.473336L271.696 0.473391L271.696 121.834L215.456 121.834Z" fill="#FFBCBC"/>
<path d="M266.027 168.224V170.624H271.967V168.224H266.027ZM275.807 163.824V178.204C275.807 181.044 276.487 181.884 278.787 181.884C279.227 181.884 280.987 181.884 281.467 181.884C283.727 181.884 284.327 180.404 284.547 176.564C283.887 176.404 282.847 175.924 282.267 175.464C282.127 178.704 281.987 179.524 281.227 179.524C280.867 179.524 279.487 179.524 279.147 179.524C278.427 179.524 278.307 179.364 278.307 178.244V163.824H275.807ZM270.787 163.804V182.044H273.287V163.804H270.787ZM282.427 166.804C280.827 168.164 278.487 169.884 276.307 171.004C276.647 171.524 277.107 172.364 277.287 172.904C279.547 171.764 282.087 170.364 284.147 168.964L282.427 166.804ZM265.327 177.304L266.387 179.764C268.147 179.044 270.327 178.144 272.327 177.244L271.887 175.064C269.487 175.924 266.947 176.824 265.327 177.304ZM292.997 165.604V167.624H304.117V165.604H292.997ZM297.397 163.484V182.264H299.717V163.484H297.397ZM296.797 175.164C295.757 176.944 293.737 178.764 291.797 179.704C292.297 180.144 293.037 181.004 293.397 181.564C295.417 180.344 297.437 178.104 298.597 175.824L296.797 175.164ZM300.317 175.104L298.717 175.744C299.737 177.784 301.537 180.104 303.077 181.384C303.457 180.804 304.217 179.984 304.757 179.544C303.177 178.564 301.317 176.744 300.317 175.104ZM295.657 173.024H301.517V174.064H295.657V173.024ZM295.657 170.424H301.517V171.444H295.657V170.424ZM293.537 168.724V175.764H303.737V168.724H293.537ZM285.957 167.604V169.844H292.897V167.604H285.957ZM288.497 163.484V182.264H290.697V163.484H288.497ZM288.457 169.144C287.957 171.704 286.777 174.824 285.477 176.564C285.837 177.144 286.357 178.084 286.577 178.744C288.037 176.684 289.237 172.824 289.817 169.624L288.457 169.144ZM290.617 170.744L289.577 171.744C290.157 172.764 291.417 175.104 291.917 176.344L293.217 174.544C292.837 173.944 291.097 171.304 290.617 170.744Z" fill="#787878"/>
<path d="M257.181 21.426V23.666H274.941V21.426H257.181ZM261.561 30.026V31.886H270.521V30.026H261.561ZM261.141 33.206V35.126H270.961V33.206H261.141ZM264.841 30.926V37.966H267.121V30.926H264.841ZM257.921 25.166V38.506H260.341V27.366H272.401V25.166H257.921ZM271.721 25.166V36.086C271.721 36.386 271.621 36.486 271.261 36.506C270.941 36.526 269.681 36.526 268.701 36.466C269.021 37.006 269.381 37.886 269.501 38.506C271.121 38.506 272.301 38.486 273.101 38.146C273.921 37.806 274.201 37.266 274.201 36.106V25.166H271.721ZM262.321 27.906C262.741 28.606 263.201 29.546 263.381 30.186L265.381 29.506C265.161 28.906 264.701 27.986 264.241 27.346L262.321 27.906ZM267.961 27.386C267.701 28.146 267.181 29.246 266.761 29.986L268.461 30.486C268.921 29.846 269.461 28.906 270.001 27.946L267.961 27.386ZM264.761 19.886V26.706H267.401V19.886H264.761ZM284.13 21.886V23.906H295.25V21.886H284.13ZM288.53 19.766V38.546H290.85V19.766H288.53ZM287.93 31.446C286.89 33.226 284.87 35.046 282.93 35.986C283.43 36.426 284.17 37.286 284.53 37.846C286.55 36.626 288.57 34.386 289.73 32.106L287.93 31.446ZM291.45 31.386L289.85 32.026C290.87 34.066 292.67 36.386 294.21 37.666C294.59 37.086 295.35 36.266 295.89 35.826C294.31 34.846 292.45 33.026 291.45 31.386ZM286.79 29.306H292.65V30.346H286.79V29.306ZM286.79 26.706H292.65V27.726H286.79V26.706ZM284.67 25.006V32.046H294.87V25.006H284.67ZM277.09 23.886V26.126H284.03V23.886H277.09ZM279.63 19.766V38.546H281.83V19.766H279.63ZM279.59 25.426C279.09 27.986 277.91 31.106 276.61 32.846C276.97 33.426 277.49 34.366 277.71 35.026C279.17 32.966 280.37 29.106 280.95 25.906L279.59 25.426ZM281.75 27.026L280.71 28.026C281.29 29.046 282.55 31.386 283.05 32.626L284.35 30.826C283.97 30.226 282.23 27.586 281.75 27.026Z" fill="#787878"/>
</g>
<defs>
<clipPath id="clip0_813_1548">
<rect width="346" height="264" fill="white" transform="translate(0 0.796143)"/>
</clipPath>
</defs>
</svg>
