<svg width="34" height="35" viewBox="0 0 34 35" fill="none" xmlns="http://www.w3.org/2000/svg">
  <path fill-rule="evenodd" clip-rule="evenodd"
    d="M17.9574 0.474986C25.5655 2.45288 30.0807 10.0401 28.0422 17.4223C27.5867 19.0721 26.8425 20.5709 25.8767 21.883C25.8871 21.8953 25.8976 21.9075 25.9077 21.9198L32.7327 30.0378C33.7989 31.3056 33.6035 33.1717 32.2969 34.2061C30.9902 35.2405 29.0668 35.0513 28.0007 33.7835L21.3374 25.8584C18.1875 27.6029 14.3551 28.1901 10.5746 27.2073C2.96611 25.2294 -1.54909 17.6409 0.489462 10.2588C2.52833 2.87672 10.3489 -1.50291 17.9574 0.474986ZM16.2794 6.54996C20.4293 7.62859 22.8923 11.7674 21.7803 15.7945C20.6683 19.8215 16.4025 22.211 12.2523 21.1311C8.10237 20.0525 5.63965 15.9136 6.75167 11.8878C7.86369 7.86078 12.1291 5.47133 16.2794 6.54996Z"
    fill="#6BE6BA" />
</svg>