<svg width="35" height="36" viewBox="0 0 35 36" fill="none" xmlns="http://www.w3.org/2000/svg">
  <path fill-rule="evenodd" clip-rule="evenodd"
    d="M18.8524 1.33094C26.4605 3.30884 30.9757 10.8961 28.9372 18.2782C28.4817 19.9281 27.7375 21.4269 26.7717 22.7389C26.7822 22.7512 26.7926 22.7635 26.8027 22.7758L33.6278 30.8938C34.6939 32.1616 34.4986 34.0277 33.1919 35.0621C31.8852 36.0965 29.9618 35.9073 28.8957 34.6395L22.2325 26.7144C19.0825 28.4589 15.2501 29.0461 11.4696 28.0633C3.86113 26.0854 -0.654068 18.4969 1.38448 11.1148C3.42335 3.73268 11.2439 -0.646954 18.8524 1.33094ZM17.1744 7.40592C21.3243 8.48455 23.7873 12.6234 22.6753 16.6504C21.5633 20.6775 17.2975 23.0669 13.1473 21.9871C8.99739 20.9084 6.53467 16.7696 7.64669 12.7438C8.75871 8.71673 13.0242 6.32729 17.1744 7.40592Z"
    fill="#DC5757" fill-opacity="0.5" />
</svg>